<svg xmlns="http://www.w3.org/2000/svg" fill="none" viewBox="0 0 201 30" height="30" width="201">
<path fill="#502C8E" d="M80.666 0.043457L67.8614 24.5653C67.3192 25.3914 66.6102 25.3914 66.068 25.1305C65.776 24.9566 65.5258 24.6957 65.4006 24.3913L53.2634 0.043457H49.6348C50.1353 1.04346 63.5237 27.174 63.8157 27.7827C64.2328 28.5653 64.8584 29.9131 66.5268 29.9131C67.6112 29.9131 68.3202 28.3914 68.3202 28.3914C68.3202 28.3914 82.7514 0.043457 82.7931 0.043457H80.666Z"></path>
<path fill="#502C8E" d="M94.1791 0.043457C92.5108 0.043457 91.8851 1.39129 91.468 2.1739C91.1761 2.78259 77.7876 28.9131 77.2871 29.9131H80.9158L85.3369 21H103.647L108.277 29.9131H110.404L95.9309 1.5652C95.9309 1.5652 95.2218 0.043457 94.1374 0.043457M86.0042 19.6522L93.0113 5.56521C93.1781 5.26086 93.3866 4.99999 93.6786 4.82608C94.2208 4.56521 94.9299 4.56521 95.4721 5.3913L102.896 19.6087H86.0042V19.6522Z"></path>
<path fill="#502C8E" d="M198.783 29.9131H200.91L186.437 1.5652C186.437 1.5652 185.728 0.043457 184.644 0.043457C183.017 0.043457 182.35 1.39129 181.933 2.1739C181.641 2.78259 168.252 28.9131 167.752 29.9131H171.381L175.802 21H194.112L198.741 29.9131H198.783ZM176.511 19.6522L183.518 5.56521C183.685 5.26086 183.893 4.99999 184.185 4.82608C184.727 4.56521 185.436 4.56521 185.979 5.3913L193.403 19.6087H176.511V19.6522Z"></path>
<path fill="#502C8E" d="M18.2267 24.5655C17.6845 25.3916 16.9754 25.3916 16.4332 25.1307C16.1412 24.9568 15.891 24.6959 15.7659 24.3916L3.62865 0.0871789H0C0.500504 1.08718 13.889 27.2177 14.1809 27.7829C14.598 28.5655 15.2236 29.9133 16.892 29.9133C17.9764 29.9133 18.6855 28.3916 18.6855 28.3916C18.6855 28.3916 33.1167 0.0437012 33.1584 0.0437012H31.0312L18.2267 24.522V24.5655Z"></path>
<path fill="#502C8E" d="M139.014 26.3044C139.014 26.6087 138.639 26.7392 138.472 26.5218C135.302 22.4348 121.788 5.04347 118.577 0.913024C118.118 0.347806 117.492 0.043457 116.783 0.043457C115.616 0.043457 114.656 1.04346 114.656 2.26085V29.9566H116.533V4.73912C116.533 4.30434 117.075 4.08695 117.326 4.43477C120.621 8.69565 132.549 24.087 136.22 28.8261C136.72 29.4783 137.763 30.0001 138.555 30.0001H138.764C139.932 30.0001 140.891 29.0001 140.891 27.7827V0.043457H139.014V26.3479V26.3044Z"></path>
<path fill="#502C8E" d="M172.381 0H146.605V1.82609H156.49C157.033 1.82609 157.491 2.30435 157.491 2.86957V29.8696H161.37V2.86957C161.37 2.30435 161.829 1.82609 162.371 1.82609H172.34V0H172.381Z"></path>
<path fill="#502C8E" d="M43.1292 0.043457H39.584V29.9566H43.1292V0.043457Z"></path>
</svg>
